<mxfile host="65bd71144e">
    <diagram id="rgkEG31HRTBFk6mvchcn" name="第 1 页">
        <mxGraphModel dx="1097" dy="609" grid="1" gridSize="10" guides="1" tooltips="1" connect="1" arrows="1" fold="1" page="1" pageScale="1" pageWidth="827" pageHeight="1169" math="0" shadow="0">
            <root>
                <mxCell id="0"/>
                <mxCell id="1" parent="0"/>
                <mxCell id="2" value="" style="rounded=0;whiteSpace=wrap;html=1;" vertex="1" parent="1">
                    <mxGeometry x="50" y="70" width="740" height="390" as="geometry"/>
                </mxCell>
                <mxCell id="3" value="部署详情页面" style="text;html=1;strokeColor=none;fillColor=none;align=center;verticalAlign=middle;whiteSpace=wrap;rounded=0;" vertex="1" parent="1">
                    <mxGeometry x="334" y="30" width="160" height="30" as="geometry"/>
                </mxCell>
                <mxCell id="4" value="基础信息" style="rounded=0;whiteSpace=wrap;html=1;" vertex="1" parent="1">
                    <mxGeometry x="90" y="110" width="120" height="30" as="geometry"/>
                </mxCell>
                <mxCell id="5" value="日志" style="rounded=0;whiteSpace=wrap;html=1;" vertex="1" parent="1">
                    <mxGeometry x="450" y="110" width="120" height="30" as="geometry"/>
                </mxCell>
                <mxCell id="6" value="配置" style="rounded=0;whiteSpace=wrap;html=1;" vertex="1" parent="1">
                    <mxGeometry x="210" y="110" width="120" height="30" as="geometry"/>
                </mxCell>
                <mxCell id="7" value="事件" style="rounded=0;whiteSpace=wrap;html=1;" vertex="1" parent="1">
                    <mxGeometry x="330" y="110" width="120" height="30" as="geometry"/>
                </mxCell>
                <mxCell id="8" value="登录" style="rounded=0;whiteSpace=wrap;html=1;" vertex="1" parent="1">
                    <mxGeometry x="570" y="110" width="120" height="30" as="geometry"/>
                </mxCell>
            </root>
        </mxGraphModel>
    </diagram>
</mxfile>